<svg width="105" height="74" viewBox="0 0 105 74" fill="none" xmlns="http://www.w3.org/2000/svg">
<path d="M4.80038 65.2372H3.45861C1.14176 65.2372 0 64.1842 0 62.1567V52.7588C0.600048 52.5326 2.25018 52.1758 3.27526 52.1758H4.77538C7.15057 52.1758 8.83403 53.481 8.83403 55.5956C8.83403 57.0314 8.09231 57.9625 6.85888 58.3366C8.10898 58.6934 9.05072 60.0422 9.05072 61.1734C9.05905 63.784 7.06723 65.2372 4.80038 65.2372ZM4.44202 54.3251H3.51695C3.20859 54.3251 2.79189 54.4034 2.45019 54.4557V57.3881H4.35035C5.45877 57.3881 6.35884 56.9357 6.35884 55.8218C6.35884 54.6819 5.35876 54.3251 4.44202 54.3251ZM4.44202 59.3983H2.46686V62.061C2.46686 62.5135 2.9419 62.8703 3.55028 62.8703H4.56703C5.9088 62.8703 6.55885 62.2263 6.55885 61.243C6.55885 59.8508 5.8838 59.3983 4.44202 59.3983Z" fill="#ED2224"/>
<path d="M14.9419 65.3501H14.4502C12.1333 65.3501 10.5332 63.9926 10.5332 62.113C10.5332 60.2944 11.8 58.9195 15.3919 58.9195H16.242V58.789C16.242 57.3532 15.5919 56.9181 14.1418 56.9181C12.3833 56.9181 11.4083 57.6142 11.0416 58.0928H10.9499V57.2835C10.9499 56.1523 11.925 54.7861 14.5002 54.7861C16.6754 54.7861 18.6338 55.8478 18.6338 59.3633V61.7127C18.6422 63.8621 17.1171 65.3501 14.9419 65.3501ZM16.267 60.7382H15.4003C13.5501 60.7382 13.0251 61.1906 13.0251 62.026C13.0251 62.8179 13.6418 63.2965 14.7085 63.2965C15.7586 63.2965 16.267 62.7657 16.267 61.7302V60.7382Z" fill="#ED2224"/>
<path d="M26.1027 57.4488C25.7443 57.3008 25.3276 57.1442 24.6859 57.1442C23.6025 57.1442 23.0024 57.7707 23.0024 59.3197V65.1847H22.3357C21.2523 65.1847 20.5605 64.619 20.5605 63.5574V58.8672C20.5605 56.8222 21.594 54.873 24.1692 54.873C25.6693 54.873 26.1943 55.7606 26.1943 56.5351V57.4401H26.1027V57.4488Z" fill="#ED2224"/>
<path d="M29.0515 54.2553C28.2765 54.2553 27.6348 53.5766 27.6348 52.7586C27.6348 51.9493 28.2682 51.2793 29.0515 51.2793C29.8266 51.2793 30.485 51.9406 30.485 52.7586C30.485 53.5679 29.8349 54.2553 29.0515 54.2553ZM30.7767 65.2805C28.8932 65.2805 27.8598 64.1666 27.8598 62.1043C27.8598 61.5213 27.8598 55.2038 27.8598 55.2038H28.5515C29.6349 55.2038 30.2933 55.8129 30.2933 57.0921V61.8607C30.2933 62.8788 30.71 63.2007 31.7768 63.2007H32.2268V63.749C32.2268 64.8454 31.8101 65.2805 30.7767 65.2805Z" fill="#ED2224"/>
<path d="M36.5361 65.4107C34.7443 65.4107 33.4025 64.4448 33.4025 63.4093V62.2519H33.4942C34.0192 62.7653 35.2693 63.2178 36.4277 63.2178C37.6195 63.2178 38.2029 62.8611 38.2029 62.104C38.2029 61.521 37.8612 61.2338 36.1777 60.9902C34.1109 60.6856 33.1191 59.8328 33.1191 58.2839C33.1191 56.3695 34.7693 54.751 37.2695 54.751C39.478 54.751 40.3864 55.9431 40.3864 56.9264V57.8923H40.2947C39.7863 57.3615 38.6612 56.9438 37.5028 56.9438C36.0194 56.9438 35.5443 57.4137 35.5443 58.0751C35.5443 58.5885 35.836 58.7973 37.5028 59.0758C39.528 59.4151 40.6197 60.3462 40.6197 61.9735C40.6114 64.1228 39.1613 65.4107 36.5361 65.4107Z" fill="#ED2224"/>
<path d="M43.2865 53.3592C43.6115 52.9589 44.0449 52.6631 44.4283 52.6631H44.9866V54.9691H48.3702V56.0133C48.3702 56.5441 47.9202 57.2228 46.9201 57.2228H44.9783V61.2169C44.9783 62.5396 45.5367 63.053 46.5201 63.053C47.2952 63.053 47.8952 62.9399 48.2786 62.6963H48.3702V63.6012C48.3702 64.6454 47.6452 65.3068 46.2367 65.3068C43.7699 65.3068 42.5781 63.9058 42.5781 61.5215V55.3954C42.5865 54.386 42.7615 54.0032 43.2865 53.3592Z" fill="#ED2224"/>
<path d="M53.7968 65.3501H53.3051C50.9883 65.3501 49.3965 63.9926 49.3965 62.113C49.3965 60.2944 50.6633 58.9195 54.2552 58.9195H55.1053V58.789C55.1053 57.3532 54.4552 56.9181 53.0051 56.9181C51.2466 56.9181 50.2716 57.6142 49.9049 58.0928H49.8132V57.2835C49.8132 56.1523 50.7883 54.7861 53.3635 54.7861C55.5386 54.7861 57.4971 55.8478 57.4971 59.3633V61.7127C57.4971 63.8621 55.972 65.3501 53.7968 65.3501ZM55.1219 60.7382H54.2552C52.4051 60.7382 51.88 61.1906 51.88 62.026C51.88 62.8179 52.4967 63.2965 53.5635 63.2965C54.6136 63.2965 55.1219 62.7657 55.1219 61.7302V60.7382Z" fill="#ED2224"/>
<path d="M63.105 65.4103C60.6048 65.4103 59.3214 64.3922 59.3214 62.8607V61.7034H59.3797C60.2131 62.4778 61.3382 63.1044 62.8383 63.1044C64.7051 63.1044 65.3052 62.443 65.3052 61.3988C65.3052 60.5112 64.9801 60.111 62.3549 59.5279C60.2548 59.058 59.0547 57.9616 59.0547 56.1952C59.0547 54.0371 60.7965 51.9922 63.7134 51.9922C66.6136 51.9922 67.447 53.2801 67.447 54.3591V55.5512H67.372C66.6136 54.6984 65.5052 54.2808 64.1468 54.2808C62.2299 54.2808 61.5215 54.9421 61.5215 55.9428C61.5215 56.7173 62.1049 57.1872 64.4218 57.7006C66.6886 58.1966 67.7887 59.4235 67.7887 61.1639C67.7804 63.7309 66.1136 65.4103 63.105 65.4103Z" fill="#ED2224"/>
<path d="M72.3051 53.2459V59.3371C73.2469 58.0492 74.172 56.744 75.297 55.6301C75.8804 55.0645 76.4555 54.9688 77.2389 54.9688H78.6306V55.0645C77.9389 55.6737 75.6804 58.3538 74.6637 59.7026C75.4387 60.7033 76.2055 61.7475 77.0722 62.6699C77.9639 63.601 78.3556 63.7837 78.9557 63.9926C78.7056 64.8018 78.3056 65.2369 77.3055 65.2369C76.7638 65.2369 76.1304 64.9759 75.7137 64.5408C74.4636 63.2007 73.3802 61.6866 72.3051 60.1899V65.1673L71.5301 65.1847C70.405 65.2021 69.8633 64.5756 69.8633 63.3834V51.5664H70.6383C71.8218 51.5664 72.3051 52.2625 72.3051 53.2459Z" fill="#ED2224"/>
<path d="M81.6394 54.2553C80.8644 54.2553 80.2227 53.5766 80.2227 52.7586C80.2227 51.9493 80.856 51.2793 81.6394 51.2793C82.4145 51.2793 83.0729 51.9406 83.0729 52.7586C83.0645 53.5679 82.4145 54.2553 81.6394 54.2553ZM83.3562 65.2805C81.4728 65.2805 80.4393 64.1666 80.4393 62.1043C80.4393 61.5213 80.4393 55.2038 80.4393 55.2038H81.1311C82.2145 55.2038 82.8729 55.8129 82.8729 57.0921V61.8607C82.8729 62.8788 83.2896 63.2007 84.3563 63.2007H84.8064V63.749C84.8064 64.8454 84.3897 65.2805 83.3562 65.2805Z" fill="#ED2224"/>
<path d="M89.3561 65.2804C87.3476 65.2804 86.2559 64.1666 86.2559 62.1043V51.5664H86.9476C88.1643 51.5664 88.6894 52.3061 88.6894 53.272V61.8606C88.6894 62.8787 89.1978 63.2007 90.3395 63.2007H90.9896V63.7489C90.9812 64.8453 90.4229 65.2804 89.3561 65.2804Z" fill="#ED2224"/>
<path d="M95.2585 65.2804C93.25 65.2804 92.1582 64.1666 92.1582 62.1043V51.5664H92.8499C94.0667 51.5664 94.5917 52.3061 94.5917 53.272V61.8606C94.5917 62.8787 95.1001 63.2007 96.2419 63.2007H96.8919V63.7489C96.8919 64.8453 96.3252 65.2804 95.2585 65.2804Z" fill="#ED2224"/>
<path d="M100.925 65.4107C99.1329 65.4107 97.7912 64.4448 97.7912 63.4093V62.2519H97.8828C98.4079 62.7653 99.658 63.2178 100.816 63.2178C102.008 63.2178 102.592 62.8611 102.592 62.104C102.592 61.521 102.25 61.2338 100.566 60.9902C98.4996 60.6856 97.5078 59.8328 97.5078 58.2839C97.5078 56.3695 99.1579 54.751 101.658 54.751C103.867 54.751 104.775 55.9431 104.775 56.9264V57.8923H104.683C104.175 57.3615 103.05 56.9438 101.891 56.9438C100.408 56.9438 99.933 57.4137 99.933 58.0751C99.933 58.5885 100.225 58.7973 101.891 59.0758C103.917 59.4151 105.008 60.3462 105.008 61.9735C105 64.1228 103.558 65.4107 100.925 65.4107Z" fill="#ED2224"/>
<path d="M18.5775 73.7649H20.3776V73.9738H18.3691V69.9971H18.5692V73.7649H18.5775Z" fill="#010101"/>
<path d="M21.6523 69.9971H23.8609V70.2059H21.8524V71.8767H23.4525V72.0855H21.8524V73.7562H23.8609V73.9651H21.6523V69.9971Z" fill="#010101"/>
<path d="M27.7619 72.8513H25.7868L25.3534 73.9738H25.1367L26.6702 69.9971H26.8869L28.4203 73.9738H28.2036L27.7619 72.8513ZM25.8618 72.6424H27.6786L26.7702 70.2842L25.8618 72.6424Z" fill="#010101"/>
<path d="M30.7195 73.0514C30.5695 72.8948 30.3861 72.8077 30.1861 72.8077H29.8777V73.9738H29.6777V69.9971H30.5445C31.2862 69.9971 31.8946 70.6323 31.8946 71.4068C31.8946 72.1116 31.3945 72.6946 30.7445 72.799C30.7862 72.8339 30.8195 72.8687 30.8612 72.9035L31.8946 73.9825H31.6029L30.7195 73.0514ZM29.8861 72.5989H30.5528C31.1862 72.5989 31.6946 72.0594 31.6946 71.4068C31.6946 70.7454 31.1779 70.2146 30.5528 70.2146H29.8861V72.5989Z" fill="#010101"/>
<path d="M33.1699 69.9971H33.3699L35.8785 73.6083V69.9971H36.0785V73.9738H35.8785L33.3699 70.3625V73.9738H33.1699V69.9971Z" fill="#010101"/>
<path d="M41.9041 70.2147H40.804V73.9826H40.604V70.2147H39.5039V70.0059H41.9041V70.2147Z" fill="#010101"/>
<path d="M44.6956 69.9971C45.7457 69.9971 46.6041 70.8847 46.6041 71.9898C46.6041 73.0862 45.754 73.9825 44.6956 73.9825C43.6455 73.9825 42.7871 73.0949 42.7871 71.9898C42.7954 70.8934 43.6455 69.9971 44.6956 69.9971ZM44.6956 73.7649C45.629 73.7649 46.3957 72.9644 46.3957 71.9898C46.3957 71.0152 45.629 70.2146 44.6956 70.2146C43.7622 70.2146 42.9955 71.0152 42.9955 71.9898C42.9955 72.9644 43.7622 73.7649 44.6956 73.7649Z" fill="#010101"/>
<path d="M50.1641 69.9971H51.2141C51.7392 69.9971 52.1726 70.4496 52.1726 70.9978C52.1726 71.3632 51.9809 71.6852 51.6975 71.8593C52.0975 72.0159 52.3726 72.4249 52.3726 72.8861C52.3726 73.5039 51.8975 73.9825 51.3142 73.9825H50.1641V69.9971ZM50.3641 71.7722H51.2141C51.6392 71.7722 51.9642 71.4242 51.9642 70.9891C51.9642 70.5453 51.6308 70.2059 51.2141 70.2059H50.3641V71.7722ZM50.3641 73.7649H51.3142C51.7892 73.7649 52.1642 73.3734 52.1642 72.8774C52.1642 72.3814 51.7809 71.9898 51.3142 71.9898H50.3641V73.7649Z" fill="#010101"/>
<path d="M53.6465 69.9971H55.855V70.2059H53.8465V71.8767H55.4466V72.0855H53.8465V73.7562H55.855V73.9651H53.6465V69.9971Z" fill="#010101"/>
<path d="M62.5977 69.9971V73.9738H62.3976V70.319L61.0059 72.0507L59.6141 70.3277V73.9825H59.4141V70.0058H59.6141L61.0059 71.72L62.3976 70.0058H62.5977V69.9971Z" fill="#010101"/>
<path d="M66.4983 72.8513H64.5231L64.0897 73.9738H63.873L65.4065 69.9971H65.6232L67.1566 73.9738H66.94L66.4983 72.8513ZM64.6064 72.6424H66.4232L65.5148 70.2842L64.6064 72.6424Z" fill="#010101"/>
<path d="M68.5802 73.2169C68.7469 73.5737 69.0969 73.7912 69.4636 73.7912C70.0303 73.7912 70.4387 73.2952 70.4387 72.7644C70.4387 72.3641 70.222 72.0248 69.922 71.8594L69.2719 71.494C69.0219 71.3547 68.8469 71.0937 68.8552 70.7543C68.8552 70.3192 69.1803 69.9189 69.647 69.9189C69.9553 69.9189 70.2304 70.093 70.3637 70.3714L70.1887 70.4846C70.0887 70.2583 69.8803 70.1278 69.6553 70.1278C69.3053 70.1278 69.0469 70.4324 69.0469 70.763C69.0469 71.0154 69.1803 71.2155 69.3636 71.3199L70.0137 71.6767C70.3804 71.8856 70.6387 72.2858 70.6387 72.7644C70.6387 73.4084 70.1553 73.9914 69.4553 73.9914C69.0303 73.9914 68.6302 73.7477 68.4219 73.3474L68.5802 73.2169Z" fill="#010101"/>
<path d="M74.0662 70.2147H72.9661V73.9826H72.7661V70.2147H71.666V70.0059H74.0662V70.2147Z" fill="#010101"/>
<path d="M75.3398 69.9971H77.5484V70.2059H75.5399V71.8767H77.14V72.0855H75.5399V73.7562H77.5484V73.9651H75.3398V69.9971Z" fill="#010101"/>
<path d="M79.8582 73.0514C79.7081 72.8948 79.5248 72.8077 79.3248 72.8077H79.0164V73.9738H78.8164V69.9971H79.6831C80.4249 69.9971 81.0332 70.6323 81.0332 71.4068C81.0332 72.1116 80.5332 72.6946 79.8832 72.799C79.9248 72.8339 79.9582 72.8687 79.9998 72.9035L81.0332 73.9825H80.7416L79.8582 73.0514ZM79.0248 72.5989H79.6915C80.3249 72.5989 80.8332 72.0594 80.8332 71.4068C80.8332 70.7454 80.3165 70.2146 79.6915 70.2146H79.0248V72.5989Z" fill="#010101"/>
<path d="M83.4241 72.9296L81.8906 69.9971H82.1073L83.5241 72.6946L84.9409 69.9971H85.1575L83.6241 72.9296V73.9825H83.4241V72.9296Z" fill="#010101"/>
<path d="M54.9299 48.3819H49.5045C40.1288 48.3819 35.5117 44.4661 35.5117 36.9739V2.16675C37.9286 1.33137 44.5958 0 48.7711 0H54.8549C64.4557 0 71.2646 4.82949 71.2646 12.6698C71.2646 17.9953 68.2643 21.4238 63.2806 22.8248C68.331 24.1562 72.148 29.1249 72.148 33.3278C72.148 42.9868 64.089 48.3819 54.9299 48.3819Z" fill="url(#paint0_linear)"/>
<path d="M45.7462 9.63281H60.814C60.814 9.63281 61.5308 12.9047 59.3139 13.1744C59.3139 13.1744 58.4638 17.2643 54.8136 16.3071V18.6218C54.8136 18.6218 53.4468 18.1432 51.555 18.6218C49.6632 19.1004 49.7965 21.0061 49.2715 20.1881C48.7464 19.3701 50.1215 18.352 51.0966 17.8734C52.0717 17.3948 52.1383 16.4811 50.7716 16.6378C49.4048 16.7857 48.2964 16.1766 47.838 15.4978C47.838 15.4978 38.5789 15.7676 37.7289 15.2977C36.8788 14.8191 37.0788 12.574 40.2707 13.2528C43.4627 13.9315 45.5545 14.2709 46.5962 14.0707C47.638 13.8706 46.3962 12.5044 45.8128 12.165C45.2295 11.817 45.0295 9.63281 45.7462 9.63281Z" fill="white"/>
<path d="M63.7799 33.25C63.3799 31.9882 62.4298 31.3008 61.0547 31.3008C55.3876 31.3008 49.7288 31.3008 44.0617 31.3008C43.7866 31.3008 43.5033 31.3443 43.1699 31.3704C43.4783 35.321 45.5034 38.4449 48.7954 40.2114H55.0042C57.5044 39.5936 58.9295 38.0186 59.4545 36.4174C59.3962 36.3826 59.4545 36.4087 59.5045 36.4522C60.6963 37.3311 61.7881 37.3746 62.7965 36.5915C63.7632 35.8344 64.1632 34.4682 63.7799 33.25ZM61.1547 35.5211C60.4713 35.5298 59.8296 34.9033 59.7962 34.1985C59.7629 33.4936 60.4213 32.7627 61.1047 32.7453C61.8047 32.7279 62.4381 33.3979 62.4381 34.155C62.4548 34.8946 61.8714 35.5124 61.1547 35.5211Z" fill="white"/>
<defs>
<linearGradient id="paint0_linear" x1="53.8295" y1="0.331712" x2="53.8295" y2="48.4639" gradientUnits="userSpaceOnUse">
<stop stop-color="#E01E26"/>
<stop offset="0.1867" stop-color="#B52C27"/>
<stop offset="0.5987" stop-color="#5B2A22"/>
<stop offset="1" stop-color="#080505"/>
</linearGradient>
</defs>
</svg>
