<svg width="81" height="66" viewBox="0 0 81 66" fill="none" xmlns="http://www.w3.org/2000/svg">
<path d="M80.768 21.912C80.768 7.79999 72.128 0.0239868 62.624 0.0239868C54.272 0.0239868 47.36 7.224 47.36 15.576C47.36 24.216 53.408 30.264 61.472 30.264C62.624 30.264 64.64 29.976 65.216 29.688C64.064 38.904 56 50.424 46.784 56.472L57.44 65.4C70.4 55.896 80.768 39.48 80.768 21.912ZM34.688 21.912C34.688 7.79999 26.048 0.0239868 16.544 0.0239868C7.904 0.0239868 1.28 7.224 1.28 15.576C1.28 24.216 7.04 30.264 15.104 30.264C16.544 30.264 18.56 29.976 19.136 29.688C17.984 38.904 9.632 50.424 0.416001 56.472L11.072 65.4C24.32 55.896 34.688 39.48 34.688 21.912Z" fill="black" fill-opacity="0.1"/>
</svg>
